# xmcd CD database file
#
# Track frame offsets:
#	150
#	11904
#	21375
#	34083
#	44671
#	55616
#	68477
#	78794
#	91538
#	117650
#	130358
#	141461
#	152939
#	165977
#	178865
#	194261
#	216626
#
# Disc length: 3164 seconds
#
# Revision: 8
# Processed by: cddbd v1.4PL0 Copyright (c) Steve Scherf et al.
# Submitted via: CDex 1.50
#
DISCID=f20c5a11
DTITLE=Buster Poindexter - Buster's Happy Hour
DYEAR=1994
DGENRE=Blues
TTITLE0=Breakin' Up the House
TTITLE1=Big Fat Mamas Are Back In Style
TTITLE2=Doin' What I Please
TTITLE3=Let Me In
TTITLE4=I Got Loaded
TTITLE5=Saturday Night Fish Fry
TTITLE6=Lavender Coffin
TTITLE7=Rocket "88"
TTITLE8=The Worst Beer I Ever Had
TTITLE9=Who Drank My Beer (While I Was In the Rear)?
TTITLE10=Rockin' All Nite Long
TTITLE11=Knock'm Down Whiskey
TTITLE12=Pink Champagne
TTITLE13=Drunk
TTITLE14=I'll Die Happy
TTITLE15=Butcher Pete (Parts 1 and 2)
TTITLE16=Alcohol
EXTD=LABEL =Rhino Records Inc.\nID =R271680\nUPC =08122-71680-25\nCOPYRIGHT =1994\n*****\nreal name =David Johansen YEAR: 1994
EXTT0=
EXTT1=
EXTT2=
EXTT3=
EXTT4=
EXTT5=duet with Soozie Tyrell
EXTT6=
EXTT7=
EXTT8=
EXTT9=
EXTT10=
EXTT11=
EXTT12=
EXTT13=duet with Bill Morrissey
EXTT14=
EXTT15=
EXTT16=
PLAYORDER=
